<svg xmlns="http://www.w3.org/2000/svg" xmlns:xlink="http://www.w3.org/1999/xlink" version="1.1" width="256" height="256" viewBox="0 0 256 256" xml:space="preserve">

<defs>
</defs>
<g style="stroke: none; stroke-width: 0; stroke-dasharray: none; stroke-linecap: butt; stroke-linejoin: miter; stroke-miterlimit: 10; fill: none; fill-rule: nonzero; opacity: 1;" transform="translate(40.54163424124515 30.58054474708169) scale(1.93 1.93)" >
	<path d="M 28.274 64.529 H 20 c -0.552 0 -1 -0.447 -1 -1 V 44.865 c 0 -0.552 0.448 -1 1 -1 s 1 0.448 1 1 v 17.664 h 7.274 c 0.552 0 1 0.447 1 1 S 28.826 64.529 28.274 64.529 z" style="stroke: none; stroke-width: 1; stroke-dasharray: none; stroke-linecap: butt; stroke-linejoin: miter; stroke-miterlimit: 10; fill: rgb(255,3,3); fill-rule: nonzero; opacity: 1;" transform=" matrix(1 0 0 1 0 0) " stroke-linecap="round" />
	<path d="M 35.319 64.529 c -0.552 0 -1 -0.447 -1 -1 V 44.865 c 0 -0.552 0.448 -1 1 -1 s 1 0.448 1 1 v 18.664 C 36.319 64.082 35.871 64.529 35.319 64.529 z" style="stroke: none; stroke-width: 1; stroke-dasharray: none; stroke-linecap: butt; stroke-linejoin: miter; stroke-miterlimit: 10; fill: rgb(255,3,3); fill-rule: nonzero; opacity: 1;" transform=" matrix(1 0 0 1 0 0) " stroke-linecap="round" />
	<path d="M 70 64.529 h -8.274 c -0.553 0 -1 -0.447 -1 -1 V 44.865 c 0 -0.552 0.447 -1 1 -1 H 70 c 0.553 0 1 0.448 1 1 s -0.447 1 -1 1 h -7.274 v 16.664 H 70 c 0.553 0 1 0.447 1 1 S 70.553 64.529 70 64.529 z" style="stroke: none; stroke-width: 1; stroke-dasharray: none; stroke-linecap: butt; stroke-linejoin: miter; stroke-miterlimit: 10; fill: rgb(255,3,3); fill-rule: nonzero; opacity: 1;" transform=" matrix(1 0 0 1 0 0) " stroke-linecap="round" />
	<path d="M 67.138 55.197 h -5.412 c -0.553 0 -1 -0.447 -1 -1 s 0.447 -1 1 -1 h 5.412 c 0.553 0 1 0.447 1 1 S 67.69 55.197 67.138 55.197 z" style="stroke: none; stroke-width: 1; stroke-dasharray: none; stroke-linecap: butt; stroke-linejoin: miter; stroke-miterlimit: 10; fill: rgb(255,3,3); fill-rule: nonzero; opacity: 1;" transform=" matrix(1 0 0 1 0 0) " stroke-linecap="round" />
	<path d="M 48.555 64.529 c -0.423 0 -0.8 -0.267 -0.942 -0.665 l -6.644 -18.664 c -0.186 -0.521 0.086 -1.092 0.606 -1.277 c 0.52 -0.186 1.092 0.086 1.277 0.606 l 5.702 16.018 l 5.701 -16.018 c 0.187 -0.521 0.758 -0.792 1.277 -0.606 c 0.521 0.185 0.792 0.757 0.607 1.277 l -6.644 18.664 C 49.354 64.263 48.978 64.529 48.555 64.529 z" style="stroke: none; stroke-width: 1; stroke-dasharray: none; stroke-linecap: butt; stroke-linejoin: miter; stroke-miterlimit: 10; fill: rgb(255,3,3); fill-rule: nonzero; opacity: 1;" transform=" matrix(1 0 0 1 0 0) " stroke-linecap="round" />
	<path d="M 45 35.992 c -2.28 0 -4.136 -1.855 -4.136 -4.136 S 42.72 27.721 45 27.721 s 4.136 1.855 4.136 4.136 S 47.28 35.992 45 35.992 z M 45 29.721 c -1.178 0 -2.136 0.958 -2.136 2.136 s 0.958 2.136 2.136 2.136 s 2.136 -0.958 2.136 -2.136 S 46.178 29.721 45 29.721 z" style="stroke: none; stroke-width: 1; stroke-dasharray: none; stroke-linecap: butt; stroke-linejoin: miter; stroke-miterlimit: 10; fill: rgb(255,3,3); fill-rule: nonzero; opacity: 1;" transform=" matrix(1 0 0 1 0 0) " stroke-linecap="round" />
	<path d="M 51.718 25.139 c -0.256 0 -0.512 -0.098 -0.707 -0.293 c -3.315 -3.315 -8.707 -3.314 -12.021 0 c -0.391 0.391 -1.023 0.391 -1.414 0 s -0.391 -1.023 0 -1.414 c 4.094 -4.094 10.755 -4.094 14.849 0 c 0.391 0.391 0.391 1.023 0 1.414 C 52.229 25.041 51.974 25.139 51.718 25.139 z" style="stroke: none; stroke-width: 1; stroke-dasharray: none; stroke-linecap: butt; stroke-linejoin: miter; stroke-miterlimit: 10; fill: rgb(255,3,3); fill-rule: nonzero; opacity: 1;" transform=" matrix(1 0 0 1 0 0) " stroke-linecap="round" />
	<path d="M 56.994 19.863 c -0.256 0 -0.512 -0.098 -0.707 -0.293 c -6.224 -6.223 -16.35 -6.224 -22.574 0 c -0.391 0.391 -1.023 0.391 -1.414 0 s -0.391 -1.023 0 -1.414 c 7.002 -7.002 18.398 -7.004 25.402 0 c 0.391 0.391 0.391 1.023 0 1.414 C 57.506 19.765 57.25 19.863 56.994 19.863 z" style="stroke: none; stroke-width: 1; stroke-dasharray: none; stroke-linecap: butt; stroke-linejoin: miter; stroke-miterlimit: 10; fill: rgb(255,3,3); fill-rule: nonzero; opacity: 1;" transform=" matrix(1 0 0 1 0 0) " stroke-linecap="round" />
	<path d="M 67.092 77.105 H 22.908 C 10.276 77.105 0 66.829 0 54.197 s 10.276 -22.908 22.908 -22.908 h 10.229 c 0.552 0 1 0.448 1 1 s -0.448 1 -1 1 H 22.908 C 11.379 33.289 2 42.668 2 54.197 c 0 11.529 9.379 20.908 20.908 20.908 h 44.184 C 78.621 75.105 88 65.727 88 54.197 c 0 -11.529 -9.379 -20.908 -20.908 -20.908 H 56.862 c -0.553 0 -1 -0.448 -1 -1 s 0.447 -1 1 -1 h 10.229 C 79.724 31.289 90 41.565 90 54.197 S 79.724 77.105 67.092 77.105 z" style="stroke: none; stroke-width: 1; stroke-dasharray: none; stroke-linecap: butt; stroke-linejoin: miter; stroke-miterlimit: 10; fill: rgb(255,3,3); fill-rule: nonzero; opacity: 1;" transform=" matrix(1 0 0 1 0 0) " stroke-linecap="round" />
</g>
</svg>